<svg id="SvgjsSvg1001" width="288" height="288" xmlns="http://www.w3.org/2000/svg" version="1.1" xmlns:xlink="http://www.w3.org/1999/xlink" xmlns:svgjs="http://svgjs.com/svgjs"><defs id="SvgjsDefs1002"></defs><g id="SvgjsG1008" transform="matrix(1,0,0,1,0,0)"><svg xmlns="http://www.w3.org/2000/svg" width="288" height="288" version="1.0" viewBox="0 0 256 256"><g transform="matrix(.1 0 0 -.1 0 256)" fill="#ffffff" class="color000 svgShape"><path d="M306 2549c-62-15-153-68-197-116-22-24-55-74-72-111l-32-67-3-247-4-248 81 0 81 0 0 216c0 257 5 279 75 349 70 70 92 75 349 75l216 0 0 80 0 80-227-1c-126-1-245-5-267-10zM1760 2481l0-81 216 0c257 0 279-5 349-75 70-70 75-92 75-349l0-216 81 0 81 0-4 248-3 247-32 67c-44 93-100 151-191 196l-76 37-248 3-248 4 0-81zM676 2024c-182-44-337-201-381-385-10-45-15-120-15-251l0-188 145 0 145 0-7-42c-5-24-8-81-7-128 1-235 165-440 395-495 91-21 567-21 658 0 230 55 394 260 395 495 1 47-2 104-7 128l-7 42 145 0 145 0 0 188c0 129-5 206-15 250-45 191-196 342-387 387-90 21-1114 20-1202-1zm1043-157c6-8 38-193 72-413 45-297 59-413 54-454-13-119-90-227-203-282-60-30-77-33-174-37l-108-3 0 67c0 63 2 70 34 106 62 68 60 157-3 220-65 65-157 65-222 0-63-63-65-152-3-220 32-36 34-43 34-106l0-67-107 4c-90 3-117 8-165 30-115 53-201 169-214 288-6 63 108 843 127 867 17 19 861 19 878 0zm-1055-44c-3-16-20-125-37-243l-32-215-79-3-78-3 4 123c3 109 7 130 32 184 28 63 97 139 151 167 41 22 45 21 39-10zm1274 8c55-29 117-98 149-166 24-53 28-74 31-183l4-123-78 3-79 3-32 210c-17 116-34 225-37 243-6 38-6 38 42 13z" fill="#ffffff" class="color000 svgShape"></path><path d="M960 1480l0-80 80 0 80 0 0 80 0 80-80 0-80 0 0-80zM1440 1480l0-80 80 0 80 0 0 80 0 80-80 0-80 0 0-80zM0 571c0-202 2-237 20-295 33-107 103-187 210-239l65-32 253-3 253-3-3 78-3 78-242 5-241 5-43 30c-24 17-57 53-74 79l-30 49-5 236-5 236-77 3-78 3 0-230zM2405 788c-2-7-6-115-7-239l-3-226-30-49c-17-26-50-62-74-79l-43-30-241-5-242-5-3-78-3-78 253 3c252 3 253 3 311 30 108 51 183 136 217 245 18 57 20 93 20 294l0 229-75 0c-52 0-77-4-80-12z" fill="#ffffff" class="color000 svgShape"></path></g></svg></g></svg>